<svg width="80" height="80" viewBox="0 0 80 80" fill="none" xmlns="http://www.w3.org/2000/svg">
<path d="M77.571 59.3004L50.2725 75.1752C49.167 75.8126 47.3811 75.7987 46.2755 75.1752L2.45054 49.875C1.34496 49.2231 1.33086 48.1884 2.43636 47.551L29.749 31.6763C30.8404 31.0527 32.6404 31.0382 33.746 31.6763L77.571 56.9764C78.6766 57.6138 78.6766 58.663 77.571 59.3004V59.3004Z" fill="#373F51"/>
<path d="M69.5861 54.6164L42.2901 70.4883L4.57812 48.7125L31.8741 32.8398L69.5861 54.6164Z" fill="#4C5671"/>
<path d="M78.3925 58.1529V60.9032C78.3925 61.3282 78.109 61.7393 77.5562 62.0652L50.2719 77.9255C49.1664 78.5636 47.3663 78.5636 46.2608 77.9255L2.44999 52.6254C1.88301 52.2994 1.59961 51.8883 1.59961 51.4634L1.61371 48.6992C1.61371 49.1248 1.8972 49.5498 2.44999 49.8757L46.2749 75.1759C47.3805 75.7994 49.1664 75.8133 50.2719 75.1759L77.5704 59.3011C78.1232 58.9897 78.3925 58.564 78.3925 58.1529Z" fill="#272E3A"/>
<path d="M62.2934 66.9951C60.8476 67.8423 58.511 67.8423 57.0506 66.9951C55.6193 66.163 55.6048 64.8045 57.0506 63.9723C58.4818 63.1394 60.833 63.1394 62.2788 63.9723C63.7247 64.8045 63.7392 66.163 62.2934 66.9951Z" fill="#272E3A"/>
<path d="M62.5011 64.6414L62.4978 65.4768C62.4967 65.8949 62.2217 66.3119 61.6756 66.6292C60.5698 67.2718 58.775 67.277 57.6619 66.6344C57.1074 66.3142 56.8299 65.8913 56.8311 65.4682L56.8343 64.6328C56.8331 65.0559 57.1107 65.4789 57.6652 65.799C58.7782 66.4416 60.5731 66.4364 61.6789 65.7938C62.2249 65.4765 62.4999 65.0595 62.5011 64.6414Z" fill="#373F51"/>
<path d="M61.6665 63.4742C62.7795 64.1168 62.7765 65.1565 61.6795 65.794C60.5737 66.4366 58.7789 66.4418 57.6658 65.7991C56.5617 65.1617 56.5557 64.1168 57.6615 63.4742C58.7585 62.8367 60.5624 62.8368 61.6665 63.4742V63.4742Z" fill="#4C5671"/>
<path d="M39.7147 49.2721C41.8311 49.7249 42.9302 50.7726 42.1804 51.6079C41.4252 52.4492 39.1079 52.7586 36.9915 52.3059C34.8831 51.8549 33.7784 50.8135 34.5336 49.9722C35.2834 49.1369 37.6063 48.8212 39.7147 49.2721V49.2721Z" fill="#373F51"/>
<path d="M58.1057 3.08951C58.101 3.08808 55.5327 5.14028 54.724 6.25588C55.2859 5.35366 56.8104 2.44793 57.5586 1.60156C55.6919 1.86435 53.8827 2.62909 52.0971 4.19939C50.9429 5.73889 49.6447 9.83469 49.4145 11.4902C49.4171 11.4902 48.7061 9.62704 49.0137 7.88632C48.9822 7.87558 45.9054 11.4959 45.5141 12.5005C45.0628 13.4787 44.5497 18.4137 44.9622 20.511C44.9718 20.5153 43.5805 20.0742 43.864 15.7349C43.7931 15.7077 39.9647 24.2624 41.9361 30.5156C41.9339 30.5156 40.5134 29.8182 40.0673 26.7871C40.0596 26.7843 38.5684 31.1579 38.9382 36.0156C38.9343 36.0134 39.8787 37.2923 40.8534 37.1992C40.8541 37.2006 40.2213 37.7047 39.0149 37.5221C39.0258 37.5272 39.3195 40.8188 42.1398 41.5814C40.591 46.2687 40.3662 46.7993 37.9102 51.1629C37.917 51.4357 40.2288 50.9266 40.2319 50.6058C40.2319 50.6058 42.7191 43.7468 43.4717 41.6767C43.4574 41.6716 47.3633 42.0898 49.6028 37.9052C49.6022 37.9052 48.078 38.2081 46.8396 37.4713C46.8362 37.4713 49.6636 37.2837 50.8722 35.5895C50.8871 35.5945 53.3857 30.6037 53.5904 27.5497C53.5863 27.5483 50.4073 29.9736 49.2092 28.1054C49.2155 28.1068 53.3414 26.3131 54.6345 23.2262C54.6024 23.2141 56.4464 15.5631 56.3294 12.0888C56.3184 12.0845 54.3428 15.3017 52.1774 16.9751C52.1807 16.9751 55.1262 12.7819 56.6031 8.65751C56.6031 8.65751 58.1915 4.77294 58.1057 3.08951V3.08951Z" fill="#6D7FCF"/>
<path d="M66.8343 62.0372C67.1511 62.2201 67.1618 62.5179 66.8472 62.7007C66.5238 62.8886 66.0097 62.8834 65.6929 62.7005L63.0052 61.1488C62.6795 60.9607 62.6778 60.6681 63.0012 60.4802C63.3158 60.2974 63.8209 60.2974 64.1466 60.4855L66.8343 62.0372Z" fill="#4C5671"/>
<path d="M66.8477 62.6992C66.5243 62.8875 66.0103 62.882 65.6936 62.6992L63.0058 61.1477C62.846 61.0555 62.7664 60.9375 62.7627 60.8203V61.6438C62.7627 61.7711 62.8335 61.8844 63.0036 61.9836L65.6966 63.5289C66.0084 63.7133 66.5186 63.7266 66.8446 63.5289C67.0006 63.443 67.0715 63.3305 67.0715 63.2164V62.3891C67.0653 62.5016 66.9956 62.6133 66.8477 62.6992V62.6992Z" fill="#272E3A"/>
<path d="M69.7563 60.3353C70.0731 60.5182 70.0745 60.8213 69.7599 61.0042C69.4453 61.187 68.9224 61.1869 68.6057 61.004L65.918 59.4523C65.5922 59.2642 65.5993 58.9665 65.9139 58.7837C66.2285 58.6009 66.7429 58.5955 67.0686 58.7836L69.7563 60.3353Z" fill="#4C5671"/>
<path d="M69.7605 61.0047C69.4458 61.1875 68.923 61.1867 68.6062 61.0039L65.9185 59.4523C65.758 59.3602 65.6801 59.2406 65.6781 59.1211L65.668 59.9539C65.668 60.068 65.753 60.1953 65.9089 60.2945L68.602 61.8391C68.9137 62.0234 69.4381 62.0234 69.7641 61.8391C69.9201 61.7547 69.9909 61.6266 69.9909 61.5133V60.6836C69.9856 60.8008 69.9116 60.9164 69.7605 61.0047V61.0047Z" fill="#272E3A"/>
<path d="M72.6772 58.6713C72.9939 58.8541 72.9954 59.1573 72.6808 59.3401C72.3662 59.523 71.8433 59.5228 71.5266 59.3399L68.8388 57.7882C68.5131 57.6001 68.5202 57.3025 68.8348 57.1196C69.1494 56.9368 69.6638 56.9314 69.9895 57.1195L72.6772 58.6713Z" fill="#4C5671"/>
<path d="M72.6814 59.3406C72.3667 59.5234 71.8438 59.5227 71.5271 59.3398L68.8394 57.7883C68.6789 57.6961 68.601 57.5766 68.599 57.457L68.5889 58.2898C68.5889 58.4039 68.6739 58.5313 68.8298 58.6305L71.5229 60.175C71.8346 60.3594 72.359 60.3594 72.685 60.175C72.841 60.0906 72.9118 59.9625 72.9118 59.8492V59.0195C72.9065 59.1367 72.8325 59.2523 72.6814 59.3406V59.3406Z" fill="#272E3A"/>
<path d="M50.4984 71.5294C50.8151 71.7123 50.8258 72.0101 50.5112 72.1929C50.1878 72.3808 49.6737 72.3756 49.357 72.1927L46.6693 70.641C46.3435 70.4529 46.3418 70.1603 46.6652 69.9724C46.9798 69.7896 47.4849 69.7896 47.8107 69.9777L50.4984 71.5294Z" fill="#4C5671"/>
<path d="M50.5118 72.1914C50.1884 72.3797 49.6743 72.3742 49.3576 72.1914L46.6698 70.6398C46.5101 70.5477 46.4305 70.4297 46.4268 70.3125V71.1359C46.4268 71.2633 46.4976 71.3766 46.6677 71.4758L49.3606 73.0211C49.6725 73.2055 50.1827 73.2188 50.5087 73.0211C50.6646 72.9352 50.7355 72.8227 50.7355 72.7086V71.8813C50.7294 71.9938 50.6597 72.1055 50.5118 72.1914V72.1914Z" fill="#272E3A"/>
<path d="M53.4204 69.8275C53.7371 70.0104 53.7386 70.3135 53.424 70.4964C53.1093 70.6792 52.5865 70.6791 52.2697 70.4962L49.582 68.9444C49.2563 68.7564 49.2633 68.4587 49.5779 68.2759C49.8926 68.093 50.4069 68.0877 50.7327 68.2758L53.4204 69.8275Z" fill="#4C5671"/>
<path d="M53.4245 70.4969C53.1099 70.6797 52.587 70.6789 52.2702 70.4961L49.5825 68.9445C49.4221 68.8523 49.3441 68.7328 49.3422 68.6133L49.332 69.4461C49.332 69.5602 49.4171 69.6875 49.5729 69.7867L52.266 71.3312C52.5777 71.5156 53.1021 71.5156 53.4281 71.3312C53.5842 71.2469 53.655 71.1187 53.655 71.0055V70.1758C53.6497 70.293 53.5757 70.4086 53.4245 70.4969V70.4969Z" fill="#272E3A"/>
<path d="M56.3413 68.1634C56.658 68.3463 56.6595 68.6495 56.3449 68.8323C56.0302 69.0151 55.5074 69.015 55.1906 68.8321L52.5029 67.2804C52.1772 67.0923 52.1842 66.7946 52.4988 66.6118C52.8135 66.429 53.3278 66.4236 53.6536 66.6117L56.3413 68.1634Z" fill="#4C5671"/>
<path d="M56.3454 68.8328C56.0308 69.0156 55.5079 69.0148 55.1911 68.832L52.5034 67.2805C52.343 67.1883 52.265 67.0687 52.2631 66.9492L52.2529 67.782C52.2529 67.8961 52.338 68.0234 52.4938 68.1227L55.1869 69.6672C55.4986 69.8516 56.023 69.8516 56.349 69.6672C56.5051 69.5828 56.5759 69.4547 56.5759 69.3414V68.5117C56.5706 68.6289 56.4966 68.7445 56.3454 68.8328V68.8328Z" fill="#272E3A"/>
<path d="M42.1624 68.1593L44.7066 66.6808L44.1999 66.3882L42.1591 67.5742L40.1048 66.3882L39.6014 66.6807L42.1624 68.1593ZM63.0385 56.0274L65.5827 54.5489L63.0217 53.0703L62.5184 53.3629L64.5726 54.5489L62.5318 55.7349L63.0385 56.0274ZM11.132 50.2439L11.6354 49.9514L9.58117 48.7654L11.622 47.5794L11.1243 47.292L8.58008 48.7705L11.132 50.2439ZM34.049 36.926L34.5523 36.6335L32.0004 35.1602L29.4562 36.6387L29.9539 36.926L31.9947 35.74L34.049 36.926Z" fill="#272E3A"/>
</svg>
