<svg width="80" height="80" viewBox="0 0 80 80" fill="none" xmlns="http://www.w3.org/2000/svg">
<g clip-path="url(#clip0)">
<path d="M66.3395 11.6356L66.3456 11.635L63.7028 10.125C62.6884 9.53907 61.4384 9.53907 60.424 10.1244L58.9445 10.9783L50.0462 5.84097V3.92874C50.0462 2.87162 49.5097 2.00004 48.7389 1.48857C48.7492 1.49467 48.7608 1.49833 48.7712 1.50444L48.6638 1.44218C48.6083 1.408 48.5521 1.37504 48.4941 1.34453L46.8236 0.379564C45.9496 -0.125195 44.8735 -0.126416 43.9983 0.375291L15.708 16.6008C13.2568 18.0162 12.0312 20.4924 12.0312 22.9686V71.3699C12.0312 73.8461 13.2568 76.3229 15.708 77.7377C20.932 80.754 27.3681 80.754 32.5927 77.7377L64.0196 59.6982C66.3786 58.3438 67.833 55.8316 67.833 53.1125V14.1844C67.833 13.0449 67.208 12.1257 66.3395 11.6356Z" fill="#33AEFF"/>
<path d="M15.708 29.3365C13.2568 27.9211 12.0312 25.4449 12.0312 22.9688V71.37C12.0312 73.8462 13.2568 76.323 15.708 77.7378C20.932 80.7542 27.3681 80.7542 32.5927 77.7378V29.3365C27.3681 32.3523 20.932 32.3523 15.708 29.3365Z" fill="#4256AC"/>
<path d="M65.9478 11.4153L63.7023 10.125C62.6879 9.53907 61.4379 9.53907 60.4235 10.1244L30.8576 27.1885C27.0136 29.4078 22.2773 29.4078 18.4327 27.1885C14.8256 25.106 14.8256 19.8998 18.4327 17.8172L46.6168 1.53434C47.2608 1.16508 48.1281 1.13335 48.7708 1.50444L46.8225 0.379564C45.9491 -0.125195 44.8731 -0.126416 43.9978 0.375291L15.7075 16.6008C10.8058 19.431 10.8058 26.5062 15.7075 29.3364C20.9315 32.3521 27.3676 32.3521 32.5922 29.3364L63.8226 11.4318C64.4634 11.0772 65.3143 11.0497 65.9478 11.4153Z" fill="#A1EAFF"/>
<path d="M30.8581 27.1886L58.9445 10.9784L48.0181 4.66979C47.3748 4.29869 46.5831 4.29747 45.9392 4.66673L18.4332 20.6377C17.0996 21.408 16.261 22.6049 15.9131 23.9135C16.2604 25.2215 17.0996 26.4184 18.4332 27.1886C22.2772 29.4078 27.0141 29.4078 30.8581 27.1886Z" fill="#E9E9E9"/>
<path d="M49.7629 11.582L56.6373 15.5511L47.3093 24.024L39.932 25.1282L33.1162 21.1932L49.7629 11.582Z" fill="#E84C3D"/>
<path d="M56.6379 15.5508V48.4382L49.3033 47.2676L39.9326 58.083V25.1278L56.6379 15.5508Z" fill="#B5292A"/>
</g>
<defs>
<clipPath id="clip0">
<rect width="80" height="80" fill="white"/>
</clipPath>
</defs>
</svg>
