<svg width="80" height="80" viewBox="0 0 80 80" fill="none" xmlns="http://www.w3.org/2000/svg">
<path d="M42.1046 50.1584L39.8493 48.8477L49.186 65.0675L51.4414 66.378L42.1046 50.1584Z" fill="#EF5A5A"/>
<path d="M37.5254 44.6074L35.27 43.2969L24.1478 75.8436L26.4032 77.1542L37.5254 44.6074Z" fill="#EF5A5A"/>
<path d="M46.6367 39.3459L44.3814 38.0352L35.2692 43.2961L37.5246 44.6067L46.6367 39.3459Z" fill="#D15A3D"/>
<path d="M37.5255 44.6085L26.4033 77.1552L32.9005 77.0841L42.1047 50.1597L51.4415 66.3793L57.918 58.9603L46.6377 39.3477L37.5255 44.6085Z" fill="#DD454D"/>
<path d="M25.8399 47.2159L25.8239 47.6479L25.8081 48.0636C25.8239 49.5839 26.352 50.5917 27.168 51.0557L33.248 54.6081C32.432 54.1276 31.904 53.1354 31.904 51.5994L31.9199 51.1837L31.9359 50.7672C31.9199 49.2797 31.4079 48.2236 30.5439 47.7274L24.4639 44.1914C25.3119 44.6877 25.8399 45.744 25.8399 47.2159V47.2159Z" fill="#304499"/>
<path d="M57.918 6.71609L51.8282 3.17721C50.9783 2.68329 49.8124 2.72745 48.5199 3.47369C48.0562 3.74137 47.5765 4.09833 47.089 4.55465C46.6205 4.98361 46.1519 5.33433 45.6967 5.59705C44.4359 6.32505 43.2225 6.43881 42.3356 5.92345L48.4253 9.46249C49.3121 9.97785 50.5255 9.86409 51.7865 9.13609C52.2415 8.87337 52.7101 8.52265 53.1788 8.09369C53.6663 7.63737 54.146 7.28041 54.6097 7.01273C55.9021 6.26633 57.068 6.22217 57.918 6.71609V6.71609Z" fill="#304499"/>
<path d="M17.7759 41.085C17.7759 42.5083 18.2559 43.6608 19.1519 44.1725L25.2479 47.7085C24.3519 47.1968 23.8559 46.0608 23.8559 44.621C23.8559 42.957 24.4959 40.9085 25.9199 38.9725C27.2319 37.1647 27.9679 35.0365 27.9679 33.2928C27.9679 32.3811 27.7439 31.5647 27.3119 30.9568C25.0798 27.8243 28.9209 20.6045 32.7999 19.853C35.4134 19.2923 37.7707 16.0938 38.5759 13.2928C39.6814 9.51203 43.6862 5.44051 46.3359 6.97251L40.2399 3.43651C37.4825 1.83971 33.5372 6.14083 32.4799 9.75683C31.7439 12.317 29.9839 14.6685 28.0959 15.7568C27.6319 16.0287 27.1679 16.2208 26.7039 16.317C22.8356 17.0664 19.0022 24.2728 21.2319 27.4208C21.6479 28.0287 21.8719 28.845 21.8879 29.7568C21.8879 31.5005 21.1519 33.6287 19.8239 35.4365C18.3999 37.3725 17.7599 39.421 17.7759 41.085V41.085Z" fill="#304499"/>
<path d="M38.5789 13.2998C37.779 16.0758 35.4195 19.2829 32.7957 19.8614C28.8818 20.6225 25.1032 27.8409 27.3154 30.9622C27.7453 31.5709 27.9686 32.3789 27.9712 33.2981C27.9762 35.0408 27.2363 37.1672 25.9152 38.9771C24.4978 40.9064 23.8544 42.9606 23.8592 44.6251C23.8662 47.1288 25.3488 48.7333 27.9016 47.7038C30.2197 46.7781 31.9226 48.0805 31.9301 50.7587C31.9253 50.9197 31.9002 51.7601 31.905 51.5992C31.9181 56.2261 36.7885 56.0208 39.86 50.9747C41.1864 48.8168 44.0374 46.1656 46.3006 47.2561C49.5597 48.8413 54.5341 42.9017 54.2322 38.296C54.2742 38.136 53.9293 33.4401 58.2152 30.2022C62.3136 27.1181 63.7976 19.9833 60.1456 19.2142C57.7106 18.7181 57.6886 15.4099 58.7046 12.8397C60.8283 7.31198 57.2536 4.27982 53.1794 8.09294C51.0714 10.023 48.397 10.5958 47.3778 8.21998C45.8014 4.66158 40.199 7.69774 38.5789 13.2998V13.2998Z" fill="#4256AC"/>
<path d="M43.0211 19.9922L40.3494 27.805L34.3392 32.2747L38.6974 34.6475L37.6963 42.1151L43.0657 35.7605L48.4537 35.9042L47.3998 29.6232L51.7441 22.2261L45.7281 24.6995L43.0211 19.9922Z" fill="#FBBA5B"/>
<path d="M43.0081 15.3819C35.9743 19.4429 30.2695 29.3083 30.2924 37.4066C30.3153 45.4885 36.0574 48.7451 43.0911 44.6842C50.1387 40.6154 55.8158 30.7658 55.7929 22.6839C55.77 14.5856 50.0556 11.313 43.0081 15.3819V15.3819ZM43.0857 42.7349C36.9761 46.2623 32.0225 43.4082 32.0027 36.4191C31.9828 29.4144 36.9041 20.8747 43.0137 17.3474C49.1094 13.828 54.063 16.6666 54.0828 23.6712C54.1027 30.6603 49.1815 39.2155 43.0857 42.7349" fill="#4256AC"/>
</svg>
