<svg width="80" height="80" viewBox="0 0 80 80" fill="none" xmlns="http://www.w3.org/2000/svg">
<path d="M45.339 4.16797L8.55957 25.4031L8.63975 54.7879L45.4192 32.4672L45.339 4.16797Z" fill="#4C5671"/>
<path d="M46.7544 2.72756C46.7527 2.16662 46.3656 1.94631 45.8774 2.22756L8.01104 24.0901C7.53057 24.3674 7.13809 25.0385 7.13965 25.5994L7.22344 55.1557C7.225 55.708 7.62012 55.933 8.10049 55.6557L45.9668 33.794C46.4551 33.5119 46.8398 32.8362 46.8382 32.2846L46.7544 2.72756ZM8.63926 54.7901L8.55909 25.4057L45.3385 4.17053L45.4188 33.5557L8.63926 54.7901Z" fill="#DDAE8E"/>
<path d="M46.4989 2.16198C46.3386 2.07585 46.1289 2.08789 45.8822 2.22341L8.01269 24.0945C7.53167 24.3656 7.13693 25.0317 7.13693 25.5991L7.22328 55.1545C7.22328 55.4262 7.32191 55.6231 7.48228 55.7098L6.60652 55.2039C6.4585 55.1178 6.35979 54.9202 6.35979 54.6486L6.27344 25.0932C6.27344 24.5258 6.65583 23.8596 7.13693 23.5886L45.0064 1.71807C45.2531 1.58255 45.4752 1.56991 45.6354 1.65604L46.4989 2.16198Z" fill="#F9D5B4"/>
<path d="M36.8175 23.2557C36.9357 23.1964 37.1326 23.0915 37.2827 23.15C37.5056 23.2414 37.943 24.2658 37.5014 25.1811C37.207 25.786 35.9117 27.2388 35.3235 27.7349L35.2921 27.7619C35.2055 27.8301 35.1189 27.9076 35.0796 27.9662C35.0247 28.0525 35.0172 28.2019 35.057 28.351L35.0969 28.4819C35.1446 28.6358 35.2004 28.8122 35.1853 29.0565C35.1699 29.2104 35.06 29.3826 34.9419 29.4508L34.9103 29.469C34.7764 29.5281 34.6815 29.4378 34.6889 29.2796C34.6965 29.1665 34.6646 29.0399 34.6248 28.9271L34.577 28.7639C34.4893 28.425 34.5513 28.0445 34.7477 27.732C35.2362 26.9513 34.7773 27.9703 36.7609 25.5545C37.3581 24.8451 37.2951 24.6003 36.961 23.7709C36.7994 23.871 34.9965 24.6904 35.1286 25.7716C35.1527 25.9116 35.0586 26.111 34.9169 26.2204C34.9071 26.227 34.8974 26.2336 34.8877 26.2392C34.7652 26.3099 34.6556 26.2689 34.6406 26.135C34.5405 25.3826 35.1032 24.1669 36.8175 23.2557Z" fill="white"/>
<path d="M32.22 29.7364C32.3479 29.6626 32.4583 29.7139 32.4663 29.8667C32.4825 30.0113 32.3726 30.2109 32.2387 30.2971C31.6954 30.656 31.1521 30.9879 30.6087 31.3016C30.2779 31.4926 29.9549 31.6702 29.632 31.8385C29.4902 31.9203 29.3875 31.8434 29.3949 31.6852C29.3945 31.5281 29.4966 31.3541 29.6309 31.2765C29.6359 31.2736 29.641 31.2706 29.6462 31.2682C29.9381 31.1119 30.2309 30.9493 30.5239 30.7801C31.085 30.4562 31.647 30.1095 32.2056 29.7452C32.2104 29.7419 32.2153 29.7392 32.22 29.7364Z" fill="white"/>
<path d="M31.8491 28.374C31.966 28.3065 32.0767 28.3548 32.0917 28.4897C32.1 28.6388 32.0059 28.8382 31.8642 28.9289C31.3525 29.2789 30.8249 29.6106 30.3051 29.9107C30.053 30.0562 29.8089 30.1972 29.5568 30.3245C29.4229 30.393 29.3123 30.3299 29.3197 30.1624C29.3271 30.0042 29.4371 29.8227 29.5788 29.7408C29.8256 29.6136 30.0742 29.477 30.3236 29.333C30.8224 29.045 31.3246 28.727 31.8232 28.3909C31.8319 28.3845 31.8405 28.379 31.8491 28.374Z" fill="white"/>
<path d="M30.732 22.0048C30.8738 21.9229 30.9844 21.9859 30.9848 22.1401C30.9852 22.2938 30.8754 22.4841 30.7336 22.5659L28.5835 23.8166C28.3867 23.9391 28.174 24.0619 28.0089 24.2389L27.9144 24.3116C27.8199 24.3662 27.7252 24.3574 27.6855 24.2716C27.63 24.1586 27.6925 23.9592 27.8105 23.8277C28.07 23.551 28.3378 23.3964 28.5819 23.2554L30.732 22.0048Z" fill="white"/>
<path d="M28.0885 21.7245L30.3647 20.4649C30.4986 20.3964 30.6093 20.4595 30.6018 20.6182C30.6023 20.7812 30.4923 20.9622 30.3584 21.0395L30.3506 21.044L28.0744 22.3041C27.9405 22.3814 27.8298 22.3091 27.8373 22.1508C27.8368 21.9878 27.9546 21.8018 28.0885 21.7245Z" fill="white"/>
<path d="M20.7283 32.8342C20.7388 32.8282 20.7493 32.8226 20.7599 32.818C20.8938 32.7682 20.9809 32.863 20.9656 33.0258C20.8961 33.5552 20.8344 34.0713 20.7886 34.5871L21.584 34.1278C21.7179 34.0505 21.8364 34.1095 21.8368 34.2632C21.8373 34.4262 21.7274 34.6165 21.5856 34.6984L20.735 35.1894C20.7045 35.5513 20.6818 35.8998 20.6671 36.2531C20.6517 36.4065 20.5497 36.5835 20.4158 36.6608L20.4 36.6699C20.2661 36.7383 20.1634 36.6614 20.1708 36.5032C20.1856 36.1681 20.2083 35.8196 20.2389 35.4759L19.8923 35.676L19.8687 35.6896C19.6718 35.8033 19.3489 35.9804 19.1433 35.8183C19.0564 35.7504 19.0637 35.5652 19.1737 35.4019C19.2196 35.3306 19.2768 35.2745 19.3337 35.2417C19.4032 35.2015 19.4725 35.1959 19.5203 35.2381C19.5836 35.2828 19.7962 35.16 19.8907 35.1054L20.2845 34.8781C20.3382 34.3307 20.3997 33.7783 20.477 33.2173C20.4911 33.0671 20.6056 32.905 20.7283 32.8342Z" fill="white"/>
<path d="M22.6943 21.7384C22.7678 21.696 22.8403 21.691 22.8899 21.7347C23.5304 22.2713 24.1552 22.8439 24.7643 23.435C25.0691 22.4161 25.3108 21.4066 25.4815 20.4106C25.5014 20.2663 25.6032 20.1155 25.7167 20.05C25.735 20.0395 25.7536 20.0307 25.7723 20.0253C25.9063 19.9838 25.9933 20.0787 25.9622 20.251C25.6131 22.3106 24.9722 24.4303 24.071 26.5367C24.024 26.6543 23.9454 26.7454 23.8666 26.7909L23.7326 26.8137C23.6142 26.8004 23.5822 26.6379 23.6606 26.4653C23.9819 25.7 24.2794 24.9297 24.5297 24.1689C23.881 23.5191 23.2008 22.8968 22.505 22.3105C22.418 22.2427 22.4333 22.0524 22.5354 21.8941C22.5827 21.8235 22.6388 21.7705 22.6943 21.7384Z" fill="white"/>
<path d="M16.9608 24.1127C17.1613 23.997 17.4192 23.88 17.6187 23.9724C17.7845 24.0399 17.8719 24.2526 17.8807 24.5647C17.8816 24.8814 17.8116 25.239 17.6706 25.6012C17.7474 25.5613 17.8243 25.5194 17.9011 25.475C18.6203 25.0598 19.3373 24.4545 19.9766 23.717C20.0146 23.6735 20.0548 23.6399 20.0941 23.6172C20.185 23.5648 20.2714 23.57 20.3157 23.6394C20.3712 23.7524 20.3244 23.9515 20.2065 24.0919C19.5067 24.9041 18.7197 25.567 17.9322 26.0217C17.6723 26.1717 17.4123 26.3036 17.1523 26.4085C17.0577 26.4449 16.9787 26.4088 16.9548 26.314C16.9309 26.2186 16.9542 26.0965 17.0327 25.9788C17.2526 25.6252 17.3855 25.2042 17.3845 24.86C17.3762 24.7109 17.3444 24.6112 17.2891 24.5797C17.2171 24.5524 17.0998 24.6039 16.9682 24.6799C16.9265 24.704 16.8835 24.7303 16.8399 24.7574C16.588 24.9211 16.4306 25.0665 16.4072 25.1705C16.3703 25.3138 16.2743 25.4454 16.1734 25.5037C16.1465 25.5192 16.1193 25.5295 16.0927 25.5335C15.9587 25.5657 15.8953 25.439 15.9342 25.2621C16.0824 24.669 16.6336 24.3238 16.8147 24.201C16.8579 24.1741 16.9073 24.1436 16.9608 24.1127Z" fill="white"/>
<path d="M28.3176 28.9996C28.3948 28.955 28.471 28.9513 28.5188 29.0004C28.5979 29.0816 28.5748 29.2671 28.4648 29.4305C28.1112 29.9247 27.8366 30.4728 27.5859 31.0528C27.8542 31.1064 28.1305 31.1554 28.4145 31.1729C28.5328 31.1857 28.5727 31.3353 28.5022 31.5117C28.4552 31.6293 28.3766 31.7293 28.29 31.7793L28.1639 31.8157C27.8719 31.7851 27.5878 31.7406 27.3115 31.6828L27.2723 31.7689C27.0137 32.3711 26.7472 32.9872 26.4255 33.5812L26.2446 33.7761L26.0711 33.7946C25.9763 33.7407 25.9679 33.5734 26.0621 33.401C26.3603 32.857 26.6111 32.2681 26.854 31.702L26.9089 31.5798C26.6405 31.5081 26.3957 31.4045 26.1508 31.301C25.9771 31.2292 25.9135 31.0849 25.9524 30.881C25.9789 30.7344 26.0797 30.5911 26.1918 30.5264C26.2113 30.5151 26.2312 30.5061 26.2511 30.5C26.3693 30.4588 26.4405 30.5357 26.4409 30.6712L26.4804 30.6848C26.7016 30.7927 26.9385 30.8738 27.1832 30.9498C27.4576 30.3292 27.7714 29.7039 28.1721 29.1372C28.2157 29.0761 28.2668 29.0288 28.3176 28.9996Z" fill="white"/>
<path d="M12.6074 42.6029C13.5605 42.1529 14.5137 41.6754 15.451 41.1795C16.9003 40.4062 18.3731 39.5559 19.7986 38.7328L28.32 33.7948C28.4539 33.7175 28.5645 33.7805 28.565 33.9342C28.5654 34.0883 28.4555 34.2875 28.3217 34.3648L19.8002 39.2935C19.5009 39.4757 19.1938 39.653 18.8866 39.8303C17.7447 40.4896 16.579 41.1533 15.429 41.7631C14.4838 42.2636 13.5228 42.7457 12.5774 43.1921C12.4435 43.2513 12.3407 43.1744 12.356 43.0116C12.3631 42.8506 12.4795 42.6767 12.6074 42.6029Z" fill="white"/>
<path d="M20.5641 24.4375C20.5688 24.4348 20.5736 24.4321 20.5784 24.4298C20.7122 24.3525 20.8229 24.4243 20.8233 24.578C20.809 25.0761 20.7158 25.6104 20.6147 26.1217C21.007 25.9345 21.3993 25.7262 21.7934 25.4987C22.0402 25.3562 22.2878 25.2059 22.5365 25.0485C22.6704 24.9712 22.7888 25.0209 22.7971 25.17C22.7976 25.333 22.6956 25.5188 22.5617 25.6049C22.3097 25.7686 22.0577 25.9229 21.8136 26.0639C21.3726 26.3185 20.9393 26.5416 20.5061 26.7465C20.4284 27.1902 20.3823 27.6068 20.4306 27.9684C20.4468 28.1135 20.3527 28.3124 20.2189 28.4078L20.1874 28.4354C20.0614 28.5081 19.9508 28.4633 19.9347 28.3275C19.8861 27.911 19.9322 27.4496 20.0097 26.9785C19.474 27.2155 18.946 27.4117 18.4179 27.5803C18.2918 27.6172 18.2047 27.5131 18.2358 27.3412C18.2623 27.1946 18.3631 27.0513 18.4703 26.9894C18.489 26.9786 18.5079 26.9702 18.5266 26.9648C19.0547 26.7956 19.5826 26.5907 20.1184 26.3541L20.1262 26.3132C20.2272 25.7926 20.3205 25.2947 20.3271 24.8556C20.3267 24.698 20.4293 24.5154 20.5641 24.4375Z" fill="white"/>
<path d="M15.5757 26.374C15.5805 26.3712 15.5854 26.3684 15.5902 26.3661C15.732 26.3025 15.8348 26.3788 15.8195 26.5416C15.744 27.7458 15.4636 28.9951 15.0962 30.1863C15.4521 30.5066 15.8237 30.7995 16.2188 31.0519C16.3136 31.1152 16.3141 31.287 16.2121 31.4546L16.039 31.6361L15.8655 31.6459C15.5178 31.4296 15.1858 31.1772 14.8695 30.9064C14.6426 31.5906 14.392 32.2428 14.1649 32.8362C14.118 32.9538 14.0314 33.049 13.9527 33.0945L13.8266 33.1314C13.7082 33.1181 13.6683 32.9685 13.7388 32.792C13.9973 32.126 14.2791 31.3741 14.5294 30.5952C14.2683 30.3382 14.0151 30.0762 13.7855 29.7829L13.7301 29.7151C13.4768 29.399 13.2155 29.0694 12.8289 29.057C12.7027 29.0483 12.6628 28.8992 12.7255 28.7268C12.7747 28.6035 12.8623 28.4978 12.9511 28.4466C12.9895 28.4244 13.0281 28.4124 13.0638 28.4139C13.5609 28.4442 13.8775 28.8323 14.1467 29.1755L14.2021 29.2341C14.3762 29.4507 14.5582 29.654 14.756 29.8481C15.045 28.8379 15.2629 27.7875 15.3311 26.7784C15.3382 26.6257 15.4479 26.4478 15.5757 26.374Z" fill="white"/>
<path d="M34.9673 31.5702C34.9868 31.5589 35.0067 31.5499 35.0266 31.5438C35.1605 31.5029 35.2397 31.6111 35.2087 31.7834C35.1699 32.005 35.1074 32.2407 35.0292 32.4762C34.9901 32.5981 34.9036 32.7115 34.8091 32.766L34.7067 32.7981C34.5805 32.8076 34.5249 32.6675 34.5796 32.4997C34.6422 32.3008 34.6968 32.106 34.7279 31.9248C34.7543 31.7782 34.8551 31.6349 34.9673 31.5702Z" fill="white"/>
<path d="M37.9833 14.1338C38.1251 14.0519 38.2357 14.115 38.244 14.2641C38.2444 14.4183 38.1345 14.6174 38.0007 14.6947C37.6463 14.9087 37.1819 15.2673 36.9466 15.7749C36.7677 16.1677 36.6115 17.4264 37.03 17.358C37.103 17.364 38.0563 16.9134 38.3611 16.6259C38.4949 16.5034 38.6049 16.3494 38.644 16.227C38.6889 16.0968 38.7744 15.9855 38.8658 15.9327C38.9018 15.9119 38.9387 15.9005 38.9744 15.9C39.1006 15.8906 39.1483 16.0357 39.0936 16.2123C38.9919 16.5155 38.7719 16.8421 38.5044 17.0959C38.2 17.3676 37.1347 17.969 36.8267 18.0011C36.0229 18.0392 36.2222 16.3647 36.544 15.6626C36.8263 15.0644 37.3218 14.5427 37.9833 14.1338Z" fill="white"/>
<path d="M35.4633 18.5747L33.5443 20.6166L33.5445 20.6976C33.5529 20.8472 33.4508 21.0419 33.3091 21.133C33.1673 21.2149 33.0567 21.1519 33.0563 20.9977C32.9864 19.4563 32.469 14.6159 32.5027 14.9359C32.4865 14.782 32.5885 14.5874 32.7223 14.4919C32.7315 14.4856 32.7406 14.4794 32.7496 14.4741C32.8729 14.403 32.9836 14.4512 32.9987 14.5861L33.2669 17.3775C33.3946 17.2989 33.521 17.2215 33.6466 17.149C34.7031 16.539 35.4922 16.6701 35.6714 16.8229C35.8517 16.9718 36.223 17.7532 35.4633 18.5747ZM35.265 18.1636L35.4458 17.9323C35.3787 17.5775 35.5168 17.198 34.4896 17.3601C34.1104 17.4341 33.6754 17.6972 33.3394 17.9066C33.4084 18.8927 33.3966 18.3382 33.519 20.0239L35.265 18.1636Z" fill="white"/>
<path d="M20.8706 38.889C21.6905 38.4156 22.0964 38.6832 22.1422 39.1541C22.2135 39.8504 21.6223 40.5775 21.1616 41.0894L21.0908 41.1662C20.2888 42.0645 19.5344 43.0892 18.8827 44.1633C19.4793 43.8292 20.0781 43.4889 20.6774 43.1428C21.6764 42.5661 22.6768 41.9742 23.671 41.3717L23.6946 41.3581C23.7386 41.2392 23.8172 41.1324 23.9111 41.0782C23.9175 41.0745 23.9239 41.0712 23.9305 41.068C24.0644 40.9995 24.175 41.0625 24.1676 41.2301C24.1602 41.4246 24.027 41.7283 23.6805 41.9372C22.7197 42.5194 21.7589 43.083 20.7902 43.6423C19.9554 44.1243 19.1127 44.602 18.2857 45.0612C18.1833 45.1203 18.0965 45.0977 18.0568 45.0213C18.025 44.9304 18.0404 44.804 18.1111 44.6816C18.8959 43.2675 19.8309 41.9482 20.8768 40.7822L20.9475 40.6962C21.2085 40.4074 21.6834 39.8887 21.6462 39.4951C21.6252 39.1398 21.1972 39.2724 20.8697 39.4614C20.8404 39.4784 20.8101 39.4964 20.7785 39.5156C20.2981 39.8111 19.8103 40.2285 19.3699 40.7277C19.0868 41.0544 18.9219 41.3217 18.8831 41.5345C18.8564 41.6827 18.7595 41.8311 18.6475 41.8957C18.6295 41.9061 18.611 41.9144 18.5923 41.9197C18.4583 41.9612 18.3713 41.857 18.4023 41.6945C18.4722 41.2824 18.7233 40.829 19.1558 40.3344C19.6512 39.7765 20.2099 39.2911 20.7611 38.9546C20.7952 38.9335 20.8319 38.9113 20.8706 38.889Z" fill="white"/>
<path d="M25.0255 29.439C25.3742 29.4614 25.545 30.4327 24.6916 31.3176L24.6523 31.3674C25.1441 31.0834 25.1364 31.5653 25.4196 32.1032C25.4672 32.2114 25.5387 32.3698 25.4921 32.6141C25.4376 32.8993 25.2648 33.1442 25.0997 33.3482C24.6123 33.9561 24.0853 34.4959 23.5344 34.9409L23.4872 34.977C23.369 35.0452 23.2664 35.0051 23.2423 34.8828C23.2104 34.7473 23.2966 34.5524 23.4304 34.4388C23.9341 34.0304 24.4061 33.5494 24.8463 33.0051C24.9721 32.8509 25.0034 32.7782 25.0034 32.76L24.9634 32.5746C24.8905 32.4142 24.5967 31.7684 24.6697 31.9288C24.5093 32.0399 23.0213 33.0711 23.1817 32.96C23.1716 32.9673 23.1615 32.9736 23.1515 32.9794C23.0441 33.0414 22.9432 33.0136 22.9212 32.9019C22.8814 32.798 22.9441 32.6167 23.0541 32.4897C24.8907 30.3647 24.8169 30.8457 24.7828 30.0778C24.6227 30.1702 23.8902 30.5931 24.0503 30.5007C23.9558 30.5553 23.8534 30.6144 23.7826 30.6823L23.7198 30.782C23.7056 30.9412 23.5966 31.1089 23.4741 31.1796C23.4644 31.1852 23.4547 31.1903 23.4449 31.1945C23.3109 31.2536 23.2082 31.1772 23.2235 31.014C23.2464 30.7651 23.3876 30.4751 23.6 30.262C23.7573 30.0984 23.9148 30.0075 24.0408 29.9347L24.7024 29.5528C24.7999 29.4965 24.9136 29.4263 25.0255 29.439Z" fill="white"/>
<path d="M27.0429 18.3292C27.0528 18.3235 27.0614 18.3185 27.0684 18.3145C27.3677 18.1599 27.6043 18.1501 27.7389 18.2898C27.8971 18.4434 27.89 18.7553 27.8827 18.9592C27.883 19.0589 27.8834 19.1855 27.8208 19.3574L27.8051 19.4028C27.8516 19.377 27.898 19.3507 27.9445 19.3239C28.3626 19.0824 28.78 18.8046 29.1909 18.4941C29.2007 18.4869 29.2105 18.4808 29.2201 18.4752C29.3427 18.4045 29.4528 18.4447 29.4751 18.5744C29.4992 18.7149 29.4051 18.9143 29.2713 19.0186C28.8383 19.3409 28.3974 19.6319 27.9642 19.8819C27.7359 20.0138 27.5074 20.1368 27.2869 20.246C27.1529 20.314 27.0502 20.2376 27.0576 20.0793C27.0648 19.8391 27.2062 19.6217 27.3005 19.4857L27.379 19.3499L27.3944 19.2229C27.3939 19.0599 27.3935 18.9063 27.3381 18.8566C27.2986 18.816 27.2118 18.8208 27.1015 18.8752L27.0861 18.9839C27.0449 19.1169 26.9546 19.2374 26.8586 19.2928C26.827 19.311 26.7948 19.3222 26.7636 19.3245C26.6532 19.3425 26.582 19.2661 26.558 19.1531C26.5339 19.0125 26.5808 18.8316 26.675 18.6774C26.8006 18.476 26.9639 18.3748 27.0429 18.3292Z" fill="white"/>
<path d="M12.6872 40.2955C13.6073 39.933 14.5385 39.4794 15.4712 38.941C15.6408 38.8431 15.8103 38.7427 15.98 38.6389C16.1139 38.5616 16.2324 38.62 16.2328 38.7742C16.2332 38.9279 16.1312 39.123 15.9895 39.2048C15.8399 39.3001 15.6902 39.3864 15.5406 39.4728C14.5089 40.0685 13.469 40.569 12.4525 40.9656C12.3973 40.9886 12.2949 41.0295 12.2001 40.9938C12.1211 40.9484 12.0814 40.8538 12.0811 40.7271C12.0882 40.4599 12.2924 40.1517 12.3474 40.0653C15.1153 36.0735 13.8998 36.1476 13.2853 37.0039C13.1675 37.1718 13.0577 37.3984 13.0974 37.493C13.1372 37.6152 13.0747 37.8145 12.9409 37.9463C12.9142 37.9731 12.8868 37.9943 12.8598 38.0099C12.7591 38.068 12.663 38.0488 12.6254 37.9564C12.5061 37.6171 12.7255 37.0827 13.0005 36.7061C14.0129 35.3067 16.1556 35.2144 12.6872 40.2955Z" fill="white"/>
<path d="M18.1756 34.7182C18.2981 34.6474 18.4083 34.6876 18.4306 34.8173C18.4546 34.9485 18.3684 35.1345 18.2504 35.2391L18.2034 35.3567L17.7728 36.5387L18.6336 36.8576C18.7363 36.8981 18.7525 37.0702 18.6662 37.2469L18.4775 37.4552L18.3198 37.4828L17.538 37.1823L16.6613 39.601C16.6144 39.7279 16.5279 39.8319 16.4412 39.882L16.323 39.9138C16.2047 39.9099 16.1569 39.7653 16.2196 39.5929L17.151 37.0339L16.2192 36.6926C16.1166 36.652 16.1003 36.4804 16.1866 36.3037C16.2351 36.2093 16.3061 36.1334 16.3772 36.0924C16.4326 36.0604 16.488 36.0495 16.533 36.0673L17.3859 36.3814L17.7615 35.3398C17.8085 35.2129 17.9181 34.914 18.1464 34.737C18.1562 34.7299 18.1659 34.7238 18.1756 34.7182Z" fill="white"/>
<path d="M77.5772 48.2477L32.1624 74.6428C31.0694 75.2771 29.2738 75.2771 28.1711 74.6428L2.4484 59.7965C1.34566 59.1528 1.34566 58.1183 2.43863 57.4841L47.8632 31.089C48.9562 30.4448 50.742 30.4543 51.8448 31.089L77.5674 45.9348C78.6702 46.579 78.6799 47.6135 77.5772 48.2477Z" fill="#E3E7F0"/>
<path d="M66.4473 41.1227C66.7276 41.2846 66.7289 41.5437 66.4505 41.7055C66.1721 41.8673 65.7188 41.8709 65.4384 41.709L58.971 37.9751C58.6907 37.8132 58.6892 37.547 58.9676 37.3852C59.246 37.2234 59.6995 37.2269 59.9799 37.3888L66.4473 41.1227Z" fill="#B4BED7"/>
<path d="M20.3916 64.2639C21.3137 64.7963 21.3125 65.6632 20.3963 66.1956C19.4801 66.7281 17.9836 66.7316 17.0614 66.1992C16.1331 65.6632 16.1343 64.7963 17.0505 64.2639C17.9666 63.7315 19.4632 63.728 20.3916 64.2639Z" fill="#B4BED7"/>
<path d="M78.3971 47.1055L78.3874 50.3823C78.3874 50.7921 78.1142 51.2119 77.5677 51.524L32.1431 77.9191C31.0501 78.5628 29.2545 78.5628 28.1518 77.9191L2.42914 63.0728C1.88265 62.7511 1.59961 62.3313 1.59961 61.9116L1.61915 58.6252C1.61915 59.0545 1.89236 59.4739 2.44861 59.796L28.1713 74.6423C29.274 75.2765 31.0696 75.2765 32.1626 74.6423L77.5774 48.2472C78.1239 47.9351 78.3971 47.5153 78.3971 47.1055Z" fill="#B4BED7"/>
<path d="M71.1097 53.3867C70.8342 53.5457 70.6114 53.9376 70.6123 54.2542C70.6132 54.5708 70.8375 54.7046 71.113 54.5455L74.5486 52.562C74.8241 52.4029 75.0469 52.0111 75.046 51.6944C75.0451 51.3778 74.8208 51.2441 74.5453 51.4031L71.1097 53.3867Z" fill="#9DA9C1"/>
<path d="M74.554 51.1708C74.4635 51.118 74.3389 51.1247 74.2016 51.2038L70.766 53.1875C70.4905 53.3465 70.2677 53.7385 70.2686 54.0549C70.269 54.2135 70.3257 54.3264 70.4167 54.3793L70.7611 54.5797C70.6699 54.5264 70.6133 54.4139 70.6129 54.2549C70.612 53.9384 70.8348 53.5464 71.1103 53.3874L74.5458 51.4038C74.6832 51.3247 74.8078 51.3179 74.8984 51.3708L74.554 51.1708Z" fill="#D3DBEA"/>
<path d="M68.6329 54.4205L65.2025 56.4014C64.927 56.5604 64.7042 56.952 64.7051 57.2688C64.7055 57.4274 64.7621 57.5403 64.8532 57.5932L65.1975 57.7932C65.1065 57.7403 65.0498 57.6278 65.0494 57.4688C65.0485 57.1523 65.2712 56.7603 65.5468 56.6013L68.9772 54.6209C69.1177 54.5394 69.2442 54.5326 69.3355 54.5855L68.9912 54.3855C68.8999 54.3327 68.7735 54.3394 68.6329 54.4205Z" fill="#D3DBEA"/>
<path d="M65.5472 56.6004C65.2717 56.7595 65.0489 57.1514 65.0498 57.468C65.0507 57.7846 65.275 57.9184 65.5505 57.7593L68.9809 55.7787C69.2616 55.6167 69.4844 55.2248 69.4835 54.9082C69.4826 54.5916 69.2583 54.4578 68.9776 54.6199L65.5472 56.6004Z" fill="#9DA9C1"/>
<path d="M7.94141 55.563L47.2534 32.7188L74.8986 48.6812L35.5901 71.5275L7.94141 55.563Z" fill="#4256AC"/>
<path d="M61.8353 50.4628L37.8779 64.3855C37.2461 64.7528 36.2062 64.7528 35.5648 64.3823L20.8796 55.9039C20.5575 55.7181 20.3977 55.4744 20.3984 55.2311L20.3965 55.6635C20.3958 55.9064 20.5556 56.1501 20.8777 56.3363L35.5629 64.8147C36.2043 65.1848 37.2442 65.1848 37.8761 64.8179L61.8334 50.8952C62.1487 50.7118 62.3059 50.4729 62.3066 50.2328L62.3085 49.8008C62.3078 50.0405 62.1506 50.2798 61.8353 50.4628V50.4628Z" fill="#CE231C"/>
<path d="M61.8237 49.1234C62.4651 49.4937 62.4736 50.093 61.8364 50.4633L37.879 64.3858C37.2471 64.753 36.2073 64.7531 35.5658 64.3828L20.8807 55.9043C20.2392 55.534 20.2413 54.9347 20.8732 54.5675L44.8306 40.645C45.4678 40.2746 46.4971 40.2746 47.1385 40.6449L61.8237 49.1234Z" fill="#E7332B"/>
<path d="M61.3023 48.462L37.9398 62.0389C37.3236 62.3971 36.3096 62.3971 35.6841 62.0358L21.4135 53.7967C21.0994 53.6155 20.9436 53.3779 20.9442 53.1406L20.9424 54.9942C20.9417 55.231 21.0976 55.4687 21.4117 55.6503L35.6822 63.8893C36.3078 64.2502 37.3218 64.2502 37.938 63.8924L61.3004 50.3155C61.6079 50.1366 61.7612 49.9037 61.7618 49.6695L61.7637 47.8164C61.763 48.0501 61.6097 48.2835 61.3023 48.462Z" fill="#E3E7F0"/>
<path d="M61.8353 47.998L37.8779 61.9206C37.2461 62.2879 36.2062 62.2879 35.5648 61.9174L20.8796 53.4391C20.5575 53.2532 20.3977 53.0095 20.3984 52.7662L20.3965 53.1986C20.3958 53.4415 20.5556 53.6852 20.8777 53.8715L35.5629 62.3498C36.2043 62.7199 37.2442 62.7199 37.8761 62.353L61.8334 48.4304C62.1487 48.2469 62.3059 48.008 62.3066 47.7679L62.3085 47.3359C62.3078 47.5756 62.1506 47.8149 61.8353 47.998V47.998Z" fill="#CE231C"/>
<path d="M61.8237 46.6586C62.4651 47.0289 62.4736 47.6281 61.8364 47.9984L37.879 61.9209C37.2471 62.2882 36.2073 62.2883 35.5658 61.9179L20.8807 53.4395C20.2392 53.0691 20.2413 52.4698 20.8732 52.1026L44.8306 38.1801C45.4678 37.8098 46.4971 37.8097 47.1385 38.1801L61.8237 46.6586Z" fill="#E7332B"/>
<path d="M46.295 39.3709C46.4565 39.4642 46.4563 39.616 46.2959 39.7092C46.1354 39.8024 45.8734 39.803 45.7119 39.7098C45.5494 39.616 45.5496 39.4642 45.71 39.3709C45.8704 39.2777 46.1325 39.2771 46.295 39.3709Z" fill="#D3374E"/>
<path d="M46.1557 39.4446C46.152 38.6751 45.6037 37.7434 44.931 37.3452C44.1952 36.9328 43.5947 37.3052 43.5947 38.1168C43.5947 38.3374 43.6617 38.5769 43.7443 38.811L43.9666 38.6818C43.9116 38.5029 43.884 38.3233 43.884 38.1585C43.884 37.4782 44.3575 37.3248 44.8207 37.621C45.3994 37.9513 45.8677 38.7504 45.8677 39.4116C45.8677 39.4379 45.8683 39.507 45.8683 39.507C45.8683 39.5285 45.8825 39.5501 45.911 39.5669C45.9676 39.5992 46.059 39.5992 46.1151 39.5669C46.143 39.5507 46.157 39.5292 46.1571 39.5077L46.1557 39.4446Z" fill="white"/>
<path d="M44.4464 40.4452C44.6079 40.5384 44.6076 40.6902 44.4472 40.7834C44.2868 40.8766 44.0248 40.8772 43.8633 40.784C43.7007 40.6902 43.7009 40.5384 43.8614 40.4452C44.0218 40.3519 44.2838 40.3513 44.4464 40.4452Z" fill="#D3374E"/>
<path d="M44.3071 40.5188C44.3034 39.7493 43.7551 38.8177 43.0823 38.4194C42.3466 38.007 41.7461 38.3794 41.7461 39.191C41.7461 39.4116 41.813 39.6511 41.8957 39.8852L42.118 39.756C42.0629 39.5771 42.0353 39.3975 42.0353 39.2327C42.0353 38.5524 42.5088 38.3991 42.9721 38.6952C43.5508 39.0255 44.0191 39.8246 44.0191 40.4859C44.0191 40.5121 44.0197 40.5812 44.0197 40.5812C44.0197 40.6028 44.0339 40.6243 44.0623 40.6411C44.1189 40.6734 44.2103 40.6734 44.2665 40.6411C44.2944 40.625 44.3084 40.6034 44.3084 40.5819C44.3084 40.5819 44.3071 40.5182 44.3071 40.5188Z" fill="white"/>
<path d="M39.7189 43.1913C39.8803 43.2845 39.8801 43.4363 39.7197 43.5295C39.5593 43.6227 39.2972 43.6233 39.1357 43.5301C38.9732 43.4363 38.9734 43.2845 39.1338 43.1912C39.2942 43.098 39.5563 43.0974 39.7189 43.1913Z" fill="#D3374E"/>
<path d="M39.5796 43.2649C39.5759 42.4954 39.0276 41.5637 38.3548 41.1655C37.6191 40.7531 37.0186 41.1255 37.0186 41.9371C37.0186 42.1577 37.0855 42.3972 37.1681 42.6313L37.3905 42.5021C37.3354 42.3232 37.3078 42.1436 37.3078 41.9788C37.3078 41.2985 37.7813 41.1452 38.2446 41.4413C38.8232 41.7716 39.2916 42.5707 39.2916 43.232C39.2916 43.2582 39.2922 43.3273 39.2922 43.3273C39.2922 43.3489 39.3064 43.3704 39.3348 43.3872C39.3914 43.4195 39.4828 43.4195 39.539 43.3872C39.5669 43.3711 39.5808 43.3495 39.5809 43.328C39.5809 43.328 39.5796 43.2643 39.5796 43.2649Z" fill="white"/>
<path d="M37.8702 44.2655C38.0317 44.3587 38.0315 44.5105 37.8711 44.6037C37.7106 44.6969 37.4486 44.6976 37.2871 44.6043C37.1246 44.5105 37.1248 44.3587 37.2852 44.2655C37.4456 44.1722 37.7077 44.1716 37.8702 44.2655Z" fill="#D3374E"/>
<path d="M37.7309 44.3391C37.7272 43.5696 37.1789 42.638 36.5062 42.2397C35.7704 41.8273 35.1699 42.1997 35.1699 43.0113C35.1699 43.2319 35.2369 43.4714 35.3195 43.7055L35.5418 43.5763C35.4867 43.3974 35.4592 43.2178 35.4592 43.053C35.4592 42.3727 35.9327 42.2194 36.3959 42.5155C36.9746 42.8458 37.4429 43.645 37.4429 44.3062C37.4429 44.3324 37.4435 44.4016 37.4435 44.4016C37.4435 44.4231 37.4577 44.4446 37.4862 44.4614C37.5427 44.4937 37.6341 44.4937 37.6903 44.4614C37.7182 44.4453 37.7322 44.4238 37.7323 44.4022L37.7309 44.3391Z" fill="white"/>
<path d="M33.1427 47.0155C33.3041 47.1087 33.3039 47.2605 33.1435 47.3537C32.9831 47.4469 32.721 47.4476 32.5596 47.3543C32.397 47.2605 32.3972 47.1087 32.5577 47.0155C32.7181 46.9222 32.9801 46.9216 33.1427 47.0155Z" fill="#D3374E"/>
<path d="M33.0034 47.0891C32.9997 46.3196 32.4514 45.388 31.7786 44.9897C31.0429 44.5773 30.4424 44.9497 30.4424 45.7613C30.4424 45.9819 30.5093 46.2214 30.592 46.4555L30.8143 46.3263C30.7592 46.1474 30.7316 45.9678 30.7316 45.803C30.7316 45.1227 31.2051 44.9694 31.6684 45.2655C32.2471 45.5958 32.7154 46.395 32.7154 47.0562C32.7154 47.0824 32.716 47.1516 32.716 47.1516C32.716 47.1731 32.7302 47.1946 32.7586 47.2114C32.8152 47.2437 32.9066 47.2437 32.9628 47.2114C32.9907 47.1953 33.0047 47.1738 33.0047 47.1522L33.0034 47.0891Z" fill="white"/>
<path d="M31.294 48.0897C31.4555 48.1829 31.4553 48.3347 31.2949 48.4279C31.1345 48.5212 30.8724 48.5218 30.7109 48.4286C30.5484 48.3347 30.5486 48.1829 30.709 48.0897C30.8694 47.9965 31.1315 47.9958 31.294 48.0897Z" fill="#D3374E"/>
<path d="M31.1548 48.1634C31.1511 47.3938 30.6028 46.4622 29.93 46.064C29.1942 45.6515 28.5938 46.0239 28.5938 46.8355C28.5938 47.0562 28.6607 47.2957 28.7433 47.5298L28.9657 47.4006C28.9106 47.2216 28.883 47.042 28.883 46.8772C28.883 46.1969 29.3674 46.0506 29.8198 46.3398C30.3984 46.67 30.8668 47.4692 30.8668 48.1304C30.8668 48.1566 30.8674 48.2258 30.8674 48.2258C30.8674 48.2473 30.8816 48.2688 30.91 48.2856C30.9666 48.3179 31.058 48.3179 31.1141 48.2856C31.1421 48.2695 31.156 48.248 31.1561 48.2264C31.1561 48.2264 31.1548 48.1627 31.1548 48.1634Z" fill="white"/>
<path d="M26.5665 50.8358C26.728 50.929 26.7278 51.0808 26.5673 51.174C26.4069 51.2672 26.1449 51.2679 25.9834 51.1746C25.8208 51.0808 25.8211 50.929 25.9815 50.8358C26.1419 50.7426 26.404 50.7419 26.5665 50.8358Z" fill="#D3374E"/>
<path d="M26.4272 50.9095C26.4235 50.1399 25.8752 49.2083 25.2025 48.8101C24.4667 48.3976 23.8662 48.77 23.8662 49.5816C23.8662 49.8022 23.9331 50.0418 24.0158 50.2758L24.2381 50.1467C24.183 49.9677 24.1555 49.7881 24.1555 49.6233C24.1555 48.9431 24.629 48.7897 25.0922 49.0859C25.6709 49.4161 26.1392 50.2153 26.1392 50.8765C26.1392 50.9027 26.1398 50.9719 26.1398 50.9719C26.1398 50.9934 26.154 51.0149 26.1825 51.0317C26.239 51.064 26.3304 51.064 26.3866 51.0317C26.4145 51.0156 26.4285 50.9941 26.4286 50.9726C26.4286 50.9726 26.4272 50.9088 26.4272 50.9095Z" fill="white"/>
<path d="M24.7179 51.91C24.8793 52.0032 24.8791 52.155 24.7187 52.2482C24.5583 52.3415 24.2962 52.3421 24.1348 52.2489C23.9722 52.155 23.9724 52.0032 24.1329 51.91C24.2933 51.8168 24.5553 51.8161 24.7179 51.91Z" fill="#D3374E"/>
<path d="M24.5786 51.9837C24.5749 51.2141 24.0266 50.2825 23.3538 49.8843C22.6181 49.4719 22.0176 49.8443 22.0176 50.6558C22.0176 50.8765 22.0845 51.116 22.1672 51.3501L22.3895 51.2209C22.3344 51.0419 22.3068 50.8623 22.3068 50.6975C22.3068 50.0173 22.7803 49.8639 23.2436 50.1601C23.8223 50.4904 24.2906 51.2895 24.2906 51.9507C24.2906 51.977 24.2912 52.0461 24.2912 52.0461C24.2912 52.0676 24.3054 52.0891 24.3338 52.106C24.3904 52.1383 24.4818 52.1383 24.538 52.106C24.5659 52.0898 24.5799 52.0683 24.5799 52.0468L24.5786 51.9837Z" fill="white"/>
</svg>
