<svg width="81" height="81" viewBox="0 0 81 81" fill="none" xmlns="http://www.w3.org/2000/svg">
<g clip-path="url(#clip0)">
<path d="M34.5675 45.8644C34.5466 38.5166 38.829 29.8409 44.6896 24.5541L41.9608 22.9682C40.315 22.0117 39.2944 19.9779 39.2862 17.0872C39.2697 11.2683 43.3612 4.18149 48.4251 1.2579C50.9734 -0.213539 53.2826 -0.350068 54.9499 0.618766L65.0706 6.50027C65.0653 6.49711 65.0597 6.49426 65.0544 6.49125C66.7095 7.44379 67.7369 9.48113 67.7451 12.3811C67.7557 16.1271 66.0628 20.3974 63.5051 23.7452L68.5392 26.6707C68.517 26.6577 68.4944 26.6457 68.4721 26.6332C71.0171 28.0731 72.599 31.1845 72.6115 35.6245L72.6387 45.2339L44.7152 61.3554L34.5945 55.4738L34.5675 45.8644Z" fill="#82CF95"/>
<path d="M68.5391 26.6714L58.4183 20.7899C56.3998 19.617 53.7634 19.508 50.8173 20.6386L60.938 26.5201C63.8841 25.3895 66.5206 25.4982 68.5391 26.6714Z" fill="#4256AC"/>
<path d="M46.1508 23.332L56.2715 29.2135C49.6752 34.3001 44.6654 43.7995 44.688 51.7459L44.7152 61.3553L34.5945 55.4738L34.5673 45.8645C34.5448 37.9182 39.5545 28.4186 46.1508 23.332Z" fill="#4256AC"/>
<path d="M48.4248 1.25791C50.9732 -0.213539 53.2823 -0.350068 54.9496 0.618766L65.0703 6.50027C63.403 5.53128 61.0939 5.66797 58.5456 7.13941C53.4816 10.0632 49.39 17.1499 49.4066 22.9687C49.4147 25.8594 50.4353 27.8932 52.0812 28.8497L41.9605 22.9682C40.3147 22.0117 39.2942 19.9779 39.2859 17.0872C39.2693 11.2683 43.3609 4.18165 48.4248 1.25791Z" fill="#5F72C5"/>
<path d="M58.5439 7.1406C53.4799 10.0643 49.3883 17.151 49.405 22.9699C49.4189 27.8623 52.3325 30.3004 56.2697 29.2148C49.6734 34.3013 44.6636 43.8008 44.6862 51.7472L44.7135 61.3565L72.6367 45.2349L72.6095 35.6255C72.587 27.6793 67.5397 23.9862 60.9364 26.5204C64.8667 23.0637 67.7571 17.2748 67.7432 12.3822C67.7267 6.56348 63.6078 4.21701 58.5439 7.1406Z" fill="#304499"/>
<path d="M6.64349 61.9855C6.62261 54.6376 10.905 45.962 16.7656 40.6751L14.0368 39.0893C12.391 38.1328 11.3704 36.099 11.3622 33.2083C11.3458 27.3894 15.4372 20.3026 20.5011 17.379C23.0494 15.9076 25.3586 15.771 27.0259 16.7399L37.1466 22.6214C37.1414 22.6182 37.1357 22.6154 37.1304 22.6123C38.7856 23.5649 39.8129 25.6021 39.8213 28.5021C39.8319 32.248 38.139 36.5184 35.5813 39.8661L40.6153 42.7916C40.5932 42.7788 40.5706 42.7666 40.5483 42.7541C43.0933 44.1941 44.675 47.3054 44.6876 51.7454L44.7148 61.3548L16.7914 77.4763L6.6707 71.5948L6.64349 61.9855Z" fill="#82CF95"/>
<path d="M40.6152 42.7925L30.4945 36.911C28.476 35.7381 25.8396 35.6291 22.8935 36.7597L33.0142 42.6412C35.9603 41.5106 38.5967 41.6194 40.6152 42.7925Z" fill="#4256AC"/>
<path d="M18.2269 39.4531L28.3477 45.3346C21.7514 50.4212 16.7416 59.9206 16.7642 67.867L16.7914 77.4764L6.67069 71.5949L6.64348 61.9856C6.62102 54.0391 11.6307 44.5397 18.2269 39.4531Z" fill="#4256AC"/>
<path d="M20.501 17.379C23.0493 15.9076 25.3585 15.771 27.0258 16.7399L37.1465 22.6214C35.4792 21.6524 33.1701 21.7891 30.6217 23.2605C25.5578 26.1842 21.4662 33.2709 21.4828 39.0898C21.4909 41.9805 22.5115 44.0143 24.1574 44.9708L14.0367 39.0893C12.3909 38.1328 11.3703 36.099 11.3621 33.2083C11.3455 27.3896 15.4371 20.3027 20.501 17.379Z" fill="#5F72C5"/>
<path d="M30.622 23.2617C25.5581 26.1854 21.4665 33.2721 21.4831 39.091C21.497 43.9834 24.4106 46.4215 28.3478 45.3359C21.7515 50.4224 16.7417 59.9219 16.7643 67.8682L16.7916 77.4776L44.7148 61.356L44.6876 51.7466C44.6652 43.8004 39.6179 40.1073 33.0145 42.6415C36.9449 39.1848 39.8352 33.3959 39.8213 28.5033C39.8049 22.6846 35.6859 20.3381 30.622 23.2617Z" fill="#304499"/>
<path d="M36.2861 65.5089C36.2652 58.1611 40.5476 49.4854 46.4082 44.1985L43.6794 42.6127C42.0336 41.6562 41.013 39.6224 41.0048 36.7317C40.9883 30.9128 45.0798 23.826 50.1437 20.9024C52.692 19.4311 55.0012 19.2944 56.6685 20.2632L66.7892 26.1449C66.7839 26.1417 66.7782 26.1389 66.773 26.1359C68.4281 27.0884 69.4555 29.1256 69.4639 32.0256C69.4745 35.7716 67.7816 40.0419 65.2239 43.3897L70.2579 46.3151C70.2358 46.3022 70.2131 46.2901 70.1908 46.2776C72.7358 47.7176 74.3177 50.829 74.3302 55.2689L74.3574 64.8783L46.4338 80.9998L36.3131 75.1183L36.2861 65.5089Z" fill="#ACDD58"/>
<path d="M70.2578 46.3159L60.1371 40.4344C58.1186 39.2615 55.4821 39.1525 52.5361 40.2832L62.6568 46.1647C65.6029 45.034 68.2393 45.1427 70.2578 46.3159Z" fill="#D63A34"/>
<path d="M47.8695 42.9766L57.9902 48.8581C51.394 53.9446 46.3842 63.4441 46.4068 71.3904L46.434 80.9998L36.3133 75.1183L36.2861 65.5091C36.2636 57.5627 41.2733 48.0631 47.8695 42.9766Z" fill="#D63A34"/>
<path d="M50.1436 20.9024C52.6919 19.431 55.0011 19.2945 56.6684 20.2633L66.7891 26.1448C65.1218 25.1758 62.8126 25.3125 60.2643 26.7839C55.2004 29.7077 51.1088 36.7944 51.1254 42.6133C51.1335 45.5039 52.154 47.5378 53.8 48.4943L43.6793 42.6128C42.0335 41.6563 41.0129 39.6224 41.0047 36.7317C40.9881 30.9129 45.0797 23.8262 50.1436 20.9024Z" fill="#EA3A33"/>
<path d="M60.2646 26.7851C55.2006 29.7089 51.109 36.7956 51.1257 42.6144C51.1396 47.5069 54.0532 49.9449 57.9904 48.8593C51.3941 53.9459 46.3843 63.4453 46.4069 71.3917L46.4341 81.0009L74.3574 64.8794L74.3302 55.2702C74.3077 47.324 69.2604 43.6309 62.6569 46.1651C66.5873 42.7084 69.4777 36.9194 69.4637 32.0269C69.4474 26.208 65.3285 23.8615 60.2646 26.7851Z" fill="#CE231C"/>
</g>
<defs>
<clipPath id="clip0">
<rect width="81" height="81" fill="white" transform="matrix(-1 0 0 1 81 0)"/>
</clipPath>
</defs>
</svg>
