<svg width="80" height="80" viewBox="0 0 80 80" fill="none" xmlns="http://www.w3.org/2000/svg">
<path d="M40.8107 33.2575C41.451 30.9622 40.7719 28.4599 43.0744 27.8435C45.6968 27.1419 51.7578 28.4552 53.6579 36.5052C56.2971 47.6864 50.8979 54.9575 63.6621 54.5786V61.3568C59.3092 61.6052 53.3925 61.4966 48.2356 59.8239C45.4099 58.9075 43.2168 56.6708 42.3362 53.8341C40.7015 48.5669 39.2066 39.0091 40.8107 33.2575Z" fill="#CE231C"/>
<path d="M15.7146 49.9604C15.7146 40.3614 21.4522 37.0622 21.4522 37.0622L26.7665 33.2389L42.2631 27.6797C52.052 29.0053 56.143 47.6997 55.6613 49.9887C55.1796 52.2763 45.033 63.7853 30.5813 67.3985C21.5489 69.6564 18.0054 67.0604 16.6179 64.7954C16.004 63.7938 15.7345 62.6075 15.7169 61.4326C15.6112 54.419 15.7146 49.9604 15.7146 49.9604Z" fill="#EA3A33"/>
<path d="M42.2637 27.6797L26.7672 33.2377L25.8757 33.8792C31.081 40.9633 38.9606 47.4356 38.9606 47.4356C41.8921 37.3409 42.2637 27.6797 42.2637 27.6797V27.6797Z" fill="#4256AC"/>
<path d="M26.7666 27.9759V33.2391C26.7666 33.2391 29.1516 37.7328 36.5572 38.6978C37.2394 38.7861 37.957 38.548 38.4152 38.0355C39.4758 36.8482 41.1105 34.0495 41.0553 28.1146V24.5938L26.7666 27.9759Z" fill="#F7C9A4"/>
<path d="M43.1267 16.442C43.1267 16.442 45.8885 30.6494 39.024 33.3005C32.1595 35.9516 24.4123 29.0903 22.925 21.863C21.4377 14.6356 38.0677 10.2476 43.1267 16.442V16.442Z" fill="#F9D5B4"/>
<path d="M22.9166 21.8717C22.9166 21.8717 23.1585 18.8868 25.5947 20.3709C25.5947 20.3709 26.6757 20.1456 26.7725 24.9534L27.805 25.3402C27.805 25.3402 27.8696 21.8394 29.3862 19.339C30.2412 17.9028 32.1128 17.4349 33.6615 18.0801C35.6299 18.9033 38.9696 19.5808 42.3738 17.0481C42.9545 17.7413 43.3807 18.9131 43.6227 20.8006C43.6227 20.8006 44.0033 18.0643 43.2934 16.2895C43.5838 15.983 43.7289 15.5797 43.6967 15.1598C43.487 12.6917 42.0349 4.64062 32.4677 4.64062C21.1741 4.64062 20.674 16.0311 22.9166 21.8717V21.8717Z" fill="#885E4B"/>
<path d="M21.2568 6.5603V16.0527C21.2568 17.7159 22.3569 19.3791 24.5438 20.6624C28.957 23.2157 36.1203 23.2157 40.5597 20.6624C42.799 19.3656 43.9121 17.6763 43.9121 15.9869V6.54688L32.5845 10.7249L21.2568 6.5603Z" fill="#272E3A"/>
<path d="M16.1622 7.64971L32.5821 13.6981L49.002 7.64971L32.5821 1.60156L16.1622 7.64971Z" fill="#4C5671"/>
<path d="M16.1687 7.65234V8.5217L32.5824 14.5626L48.9961 8.5217V7.65234L32.5824 13.6933L16.1832 7.65234H16.1687Z" fill="#373F51"/>
<path d="M31.9441 8.75967C30.9208 8.75967 30.0913 8.36138 30.0913 7.87007C30.0913 7.37876 30.9208 6.98047 31.9441 6.98047C32.9673 6.98047 33.7969 7.37876 33.7969 7.87007C33.7969 8.36138 32.9673 8.75967 31.9441 8.75967Z" fill="#B4BED7"/>
<path d="M31.7646 7.65194L24.447 10.3482C24.3254 10.3924 24.2451 10.508 24.2451 10.6376V19.5519C23.8013 19.6865 23.4722 20.0833 23.4722 20.5705C23.4722 20.8458 23.5829 21.0889 23.7517 21.2808L23.2416 24.3911H25.8653L25.3553 21.2808C25.5239 21.0889 25.6348 20.8458 25.6348 20.5705C25.6348 20.0833 25.3057 19.6865 24.8619 19.5519V10.8525L31.9776 8.23158C32.1373 8.17231 32.2197 7.9955 32.1605 7.83477C32.1022 7.67605 31.9244 7.59266 31.7646 7.65194V7.65194Z" fill="#ED5D71"/>
<path d="M19.515 67.1837L36.5395 77.074C36.971 77.3316 37.674 77.3316 38.1125 77.074L65.9808 60.9892C66.4193 60.7388 66.4193 60.3279 65.9878 60.0774L48.9633 50.1803C48.5317 49.9295 47.8218 49.9295 47.3834 50.1803L19.515 66.2719C19.0765 66.5227 19.0834 66.9332 19.515 67.1837Z" fill="#D3DBEA"/>
<path d="M27.1289 63.2277C26.8978 63.3611 26.8965 63.5766 27.1217 63.7075L31.8633 66.463C32.0928 66.5964 32.4648 66.5963 32.6959 66.4629L42.0368 61.07C42.2679 60.9366 42.2691 60.7211 42.0397 60.5877L37.298 57.8322C37.0729 57.7013 36.7008 57.7014 36.4698 57.8348L27.1289 63.2277Z" fill="#B4BED7"/>
<path d="M19.5134 67.1833L36.5373 77.0764C36.9699 77.3278 37.674 77.3302 38.114 77.0764L65.9811 60.9872C66.2003 60.8607 66.3098 60.6939 66.3093 60.5273L66.3125 61.6621C66.313 61.8286 66.2035 61.9955 65.9843 62.1219L38.1172 78.2111C37.6773 78.465 36.9732 78.4626 36.5406 78.2111L19.5166 68.3177C19.301 68.1927 19.1923 68.0285 19.1919 67.864L19.1886 66.7293C19.1891 66.8938 19.2978 67.0579 19.5134 67.1833Z" fill="#4C5671"/>
<path d="M39.7419 68.3852L41.3488 69.319L43.1797 68.262L41.5727 67.3281L39.7419 68.3852Z" fill="#4C5671"/>
<path d="M52.9256 56.0791L56.5592 58.1908L58.3945 57.1311L54.7609 55.0195L52.9256 56.0791Z" fill="#4C5671"/>
<path d="M50.4633 57.501L52.0749 58.4375L53.9102 57.3779L52.2986 56.4414L50.4633 57.501Z" fill="#4C5671"/>
<path d="M48.001 58.9203L49.6125 59.8568L51.4434 58.7998L49.8318 57.8633L48.001 58.9203Z" fill="#4C5671"/>
<path d="M54.5158 59.856L56.1228 60.7898L60.4199 58.3089L58.8129 57.375L54.5158 59.856Z" fill="#4C5671"/>
<path d="M45.5401 60.3422L47.147 61.2761L48.9824 60.2217L47.3709 59.2852L45.5401 60.3422Z" fill="#4C5671"/>
<path d="M57.4586 60.5071L59.0655 61.441L62.4473 59.4886L60.8403 58.5547L57.4586 60.5071Z" fill="#4C5671"/>
<path d="M52.0544 61.2758L53.6613 62.2097L55.4922 61.1526L53.8852 60.2188L52.0544 61.2758Z" fill="#4C5671"/>
<path d="M43.0734 61.7666L44.6803 62.7005L46.5156 61.6409L44.9087 60.707L43.0734 61.7666Z" fill="#4C5671"/>
<path d="M54.9972 61.9268L56.6042 62.8607L58.4395 61.8011L56.8325 60.8672L54.9972 61.9268Z" fill="#4C5671"/>
<path d="M49.5934 62.6977L51.2004 63.6315L53.0312 62.5745L51.4243 61.6406L49.5934 62.6977Z" fill="#4C5671"/>
<path d="M47.1261 64.1221L48.7331 65.056L50.5684 63.9964L48.9614 63.0625L47.1261 64.1221Z" fill="#4C5671"/>
<path d="M42.6376 64.3682L44.2448 65.3022L46.0801 64.2426L44.4729 63.3086L42.6376 64.3682Z" fill="#4C5671"/>
<path d="M44.6652 65.544L46.2721 66.4778L48.1074 65.4182L46.5004 64.4844L44.6652 65.544Z" fill="#4C5671"/>
<path d="M40.1752 65.7875L41.7824 66.7215L43.6133 65.6645L42.0061 64.7305L40.1752 65.7875Z" fill="#4C5671"/>
<path d="M37.7143 67.2094L39.3215 68.1434L41.1523 67.0864L39.5451 66.1523L37.7143 67.2094Z" fill="#4C5671"/>
<path d="M33.2217 67.4556L34.8287 68.3894L44.1562 63.0042L42.5493 62.0703L33.2217 67.4556Z" fill="#4C5671"/>
<path d="M53.6456 65.0531L54.3742 65.4766L56.2051 64.4195L55.4764 63.9961L53.6456 65.0531Z" fill="#4C5671"/>
<path d="M52.5348 63.3461L54.1418 64.28L55.9727 63.2229L54.3657 62.2891L52.5348 63.3461Z" fill="#4C5671"/>
<path d="M50.0739 64.768L51.6809 65.7019L53.5117 64.6448L51.9047 63.7109L50.0739 64.768Z" fill="#4C5671"/>
<path d="M51.1802 66.4776L51.9088 66.901L53.7441 65.8414L53.0155 65.418L51.1802 66.4776Z" fill="#4C5671"/>
<path d="M47.6066 66.1924L49.2135 67.1263L51.0488 66.0667L49.4419 65.1328L47.6066 66.1924Z" fill="#4C5671"/>
<path d="M48.7193 67.8994L49.4479 68.3229L51.2832 67.2633L50.5546 66.8398L48.7193 67.8994Z" fill="#4C5671"/>
<path d="M46.2569 69.3227L46.9856 69.7461L48.8164 68.6891L48.0878 68.2656L46.2569 69.3227Z" fill="#4C5671"/>
<path d="M43.794 70.7446L44.5227 71.168L46.3535 70.1109L45.6249 69.6875L43.794 70.7446Z" fill="#4C5671"/>
<path d="M40.2223 70.4555L41.8293 71.3894L43.6602 70.3323L42.0532 69.3984L40.2223 70.4555Z" fill="#4C5671"/>
<path d="M41.3287 72.1651L42.0573 72.5885L43.8926 71.5289L43.1639 71.1055L41.3287 72.1651Z" fill="#4C5671"/>
<path d="M35.2489 68.6338L36.8561 69.5678L38.6914 68.5082L37.0842 67.5742L35.2489 68.6338Z" fill="#4C5671"/>
<path d="M32.786 70.0518L34.3932 70.9858L36.2285 69.9262L34.6213 68.9922L32.786 70.0518Z" fill="#4C5671"/>
<path d="M32.3517 72.6489L33.9587 73.5828L38.2559 71.1018L36.6489 70.168L32.3517 72.6489Z" fill="#4C5671"/>
<path d="M37.755 71.8799L39.362 72.8138L41.1973 71.7542L39.5903 70.8203L37.755 71.8799Z" fill="#4C5671"/>
<path d="M38.8658 73.5869L39.5944 74.0104L41.4297 72.9508L40.7011 72.5273L38.8658 73.5869Z" fill="#4C5671"/>
<path d="M34.3786 73.8303L35.9856 74.7642L38.7363 73.1761L37.1294 72.2422L34.3786 73.8303Z" fill="#4C5671"/>
<path d="M36.4034 75.0063L37.1321 75.4297L38.9629 74.3727L38.2343 73.9492L36.4034 75.0063Z" fill="#4C5671"/>
<path d="M56.1085 63.6313L56.8371 64.0547L58.668 62.9977L57.9393 62.5742L56.1085 63.6313Z" fill="#4C5671"/>
<path d="M61.0318 60.7901L61.7604 61.2135L63.5957 60.1539L62.8671 59.7305L61.0318 60.7901Z" fill="#4C5671"/>
<path d="M58.5708 62.212L59.2995 62.6354L61.1348 61.5758L60.4061 61.1523L58.5708 62.212Z" fill="#4C5671"/>
<path d="M45.1456 67.6143L46.7526 68.5482L48.5879 67.4886L46.9809 66.5547L45.1456 67.6143Z" fill="#4C5671"/>
<path d="M42.6833 69.0375L44.2903 69.9714L46.1211 68.9143L44.5141 67.9805L42.6833 69.0375Z" fill="#4C5671"/>
<path d="M37.2745 69.8096L38.8815 70.7435L40.7168 69.6839L39.1098 68.75L37.2745 69.8096Z" fill="#4C5671"/>
<path d="M42.2028 66.9633L43.8098 67.8972L45.6406 66.8401L44.0337 65.9062L42.2028 66.9633Z" fill="#4C5671"/>
<path d="M28.299 70.2974L29.906 71.2313L34.2031 68.7503L32.5962 67.8164L28.299 70.2974Z" fill="#4C5671"/>
<path d="M30.3256 71.475L31.9328 72.409L33.7637 71.352L32.1565 70.418L30.3256 71.475Z" fill="#4C5671"/>
<path d="M45.1005 62.9463L46.7077 63.8803L48.543 62.8207L46.9358 61.8867L45.1005 62.9463Z" fill="#4C5671"/>
<path d="M50.0287 60.1L51.6359 61.034L53.4668 59.977L51.8596 59.043L50.0287 60.1Z" fill="#4C5671"/>
<path d="M14.0822 62.6375C14.4822 65.582 16.2742 68.1578 18.8982 69.5335C27.7782 74.1578 40.1302 73.982 40.1302 73.982L45.0742 67.4539C34.2582 67.4695 28.6902 65.9656 25.7302 63.7578C24.6902 62.9734 24.3382 61.582 24.8982 60.4132C26.1782 57.6937 28.4342 52.1898 28.1302 47.4374C27.6021 39.1976 24.2371 37.2615 21.5331 37.5178C19.1652 37.7412 17.0262 39.9499 16.0021 42.1101C13.4582 47.5015 13.3462 57.182 14.0822 62.6375Z" fill="#CE231C"/>
<path d="M37.4729 57.4167L37.5273 77.3253C37.5273 77.7697 37.8449 77.9514 38.2351 77.7245L65.6118 61.9174C66.002 61.6906 66.3105 61.1549 66.3105 60.7105L66.2561 40.8018C66.2561 40.357 65.9385 40.1758 65.5483 40.4026L38.1716 56.2097C37.7814 56.4273 37.4729 56.9718 37.4729 57.4167V57.4167Z" fill="#9DA9C1"/>
<path d="M36.5568 56.8835L36.6113 76.7925C36.6113 77.0194 36.6929 77.1736 36.82 77.2462L37.7356 77.7829C37.6085 77.7102 37.5268 77.5467 37.5268 77.3292L37.4724 57.4205C37.4724 56.9757 37.7809 56.4311 38.1711 56.2136L65.5478 40.4065C65.7475 40.2882 65.9199 40.2793 66.0469 40.352L65.1313 39.8242C65.0043 39.7427 64.8319 39.7604 64.6322 39.8694L37.2555 55.6765C36.8654 55.9034 36.5568 56.4391 36.5568 56.8835V56.8835Z" fill="#E3E7F0"/>
<path d="M52.6513 56.0955C54.0833 55.2688 55.2453 55.9247 55.25 57.5704C55.2546 59.2098 54.1002 61.2094 52.6682 62.0361C51.2414 62.8599 50.0794 62.1977 50.0748 60.5583C50.0701 58.9126 51.2246 56.9193 52.6513 56.0955V56.0955Z" fill="#D3DBEA"/>
</svg>
